<svg width="1009" height="839" viewBox="0 0 1009 839" fill="none" xmlns="http://www.w3.org/2000/svg">
<g id="undraw_lost_online_wqob 1">
<path id="Vector" d="M0 0H1007.86V0.000772345C1007.86 101.982 986.266 202.965 944.305 297.184C902.345 391.402 840.842 477.012 763.31 549.123C685.777 621.235 593.732 678.437 492.431 717.464C391.129 756.491 282.555 776.577 172.907 776.577H0V0Z" fill="#3F3D56"/>
<g id="smallSatars">
<path id="Vector_2" d="M491.504 41.015C495.375 41.015 498.513 38.0964 498.513 34.4962C498.513 30.8959 495.375 27.9774 491.504 27.9774C487.633 27.9774 484.495 30.8959 484.495 34.4962C484.495 38.0964 487.633 41.015 491.504 41.015Z" fill="#FF6584"/>
<path id="Vector_3" d="M719.292 477.776C723.163 477.776 726.301 474.857 726.301 471.257C726.301 467.657 723.163 464.738 719.292 464.738C715.421 464.738 712.283 467.657 712.283 471.257C712.283 474.857 715.421 477.776 719.292 477.776Z" fill="#FF6584"/>
<path id="Vector_4" d="M742.655 41.015C746.526 41.015 749.664 38.0964 749.664 34.4962C749.664 30.8959 746.526 27.9774 742.655 27.9774C738.784 27.9774 735.646 30.8959 735.646 34.4962C735.646 38.0964 738.784 41.015 742.655 41.015Z" fill="#F2F2F2"/>
<path id="Vector_5" d="M840.779 355.005C844.65 355.005 847.788 352.086 847.788 348.486C847.788 344.886 844.65 341.967 840.779 341.967C836.908 341.967 833.77 344.886 833.77 348.486C833.77 352.086 836.908 355.005 840.779 355.005Z" fill="#F2F2F2"/>
<path id="Vector_6" d="M848.229 303.247C852.802 303.247 856.508 299.8 856.508 295.548C856.508 291.295 852.802 287.848 848.229 287.848C843.657 287.848 839.951 291.295 839.951 295.548C839.951 299.8 843.657 303.247 848.229 303.247Z" fill="#EA9D42"/>
<path id="Vector_7" d="M561.592 217.023C565.463 217.023 568.601 214.105 568.601 210.504C568.601 206.904 565.463 203.985 561.592 203.985C557.721 203.985 554.583 206.904 554.583 210.504C554.583 214.105 557.721 217.023 561.592 217.023Z" fill="#F2F2F2"/>
<path id="Vector_8" d="M191.291 173.564C195.161 173.564 198.299 170.646 198.299 167.046C198.299 163.445 195.161 160.527 191.291 160.527C187.42 160.527 184.282 163.445 184.282 167.046C184.282 170.646 187.42 173.564 191.291 173.564Z" fill="#F2F2F2"/>
</g>
<g id="planetB">
<path id="Vector_9" d="M323.291 659.216C454.901 659.216 561.592 559.985 561.592 437.577C561.592 315.168 454.901 215.937 323.291 215.937C191.681 215.937 84.9894 315.168 84.9894 437.577C84.9894 559.985 191.681 659.216 323.291 659.216Z" fill="#EA9D42"/>
<path id="Vector_10" opacity="0.2" d="M312.778 379.994C332.132 379.994 347.822 365.401 347.822 347.4C347.822 329.398 332.132 314.805 312.778 314.805C293.423 314.805 277.733 329.398 277.733 347.4C277.733 365.401 293.423 379.994 312.778 379.994Z" fill="black"/>
<path id="Vector_11" opacity="0.2" d="M312.778 622.276C346.325 622.276 373.521 596.982 373.521 565.78C373.521 534.578 346.325 509.284 312.778 509.284C279.23 509.284 252.034 534.578 252.034 565.78C252.034 596.982 279.23 622.276 312.778 622.276Z" fill="black"/>
<path id="Vector_12" opacity="0.2" d="M431.949 481.656C438.389 481.656 443.61 476.801 443.61 470.811C443.61 464.821 438.389 459.966 431.949 459.966C425.509 459.966 420.289 464.821 420.289 470.811C420.289 476.801 425.509 481.656 431.949 481.656Z" fill="black"/>
<path id="Vector_13" opacity="0.2" d="M136.388 494.073C144.775 494.073 151.574 487.749 151.574 479.949C151.574 472.148 144.775 465.825 136.388 465.825C128.001 465.825 121.202 472.148 121.202 479.949C121.202 487.749 128.001 494.073 136.388 494.073Z" fill="black"/>
<path id="Vector_14" opacity="0.2" d="M498.617 401.742C503.075 401.742 506.69 398.381 506.69 394.234C506.69 390.087 503.075 386.726 498.617 386.726C494.158 386.726 490.544 390.087 490.544 394.234C490.544 398.381 494.158 401.742 498.617 401.742Z" fill="black"/>
<path id="Vector_15" opacity="0.2" d="M788.233 213.298C794.673 213.298 799.894 208.442 799.894 202.453C799.894 196.463 794.673 191.607 788.233 191.607C781.793 191.607 776.573 196.463 776.573 202.453C776.573 208.442 781.793 213.298 788.233 213.298Z" fill="black"/>
<path id="Vector_16" opacity="0.2" d="M393.275 305.9C397.734 305.9 401.348 302.539 401.348 298.392C401.348 294.245 397.734 290.884 393.275 290.884C388.817 290.884 385.203 294.245 385.203 298.392C385.203 302.539 388.817 305.9 393.275 305.9Z" fill="black"/>
<path id="Vector_17" opacity="0.2" d="M302.264 457.133C308.071 457.133 312.778 452.755 312.778 447.355C312.778 441.954 308.071 437.577 302.264 437.577C296.458 437.577 291.751 441.954 291.751 447.355C291.751 452.755 296.458 457.133 302.264 457.133Z" fill="black"/>
<path id="Vector_18" opacity="0.2" d="M176.105 361.524C184.492 361.524 191.291 355.2 191.291 347.4C191.291 339.599 184.492 333.275 176.105 333.275C167.718 333.275 160.919 339.599 160.919 347.4C160.919 355.2 167.718 361.524 176.105 361.524Z" fill="black"/>
</g>
<g id="planetS">
<path id="Vector_19" opacity="0.2" d="M735.542 157.054C740 157.054 743.614 153.692 743.614 149.546C743.614 145.399 740 142.037 735.542 142.037C731.083 142.037 727.469 145.399 727.469 149.546C727.469 153.692 731.083 157.054 735.542 157.054Z" fill="black"/>
<path id="Vector_20" d="M742.655 264.828C787.815 264.828 824.425 230.778 824.425 188.775C824.425 146.772 787.815 112.722 742.655 112.722C697.494 112.722 660.885 146.772 660.885 188.775C660.885 230.778 697.494 264.828 742.655 264.828Z" fill="#F2F2F2"/>
<path id="Vector_21" opacity="0.2" d="M715.892 217.043C720.35 217.043 723.964 213.681 723.964 209.534C723.964 205.388 720.35 202.026 715.892 202.026C711.433 202.026 707.819 205.388 707.819 209.534C707.819 213.681 711.433 217.043 715.892 217.043Z" fill="black"/>
</g>
<path id="PlanetBRing" d="M374.922 565.333C349.861 565.302 324.822 563.956 299.925 561.303C225.039 553.393 155.974 534.702 105.451 508.675C54.3109 482.328 28.1423 451.478 31.7648 421.808C34.2745 401.252 55.6365 382.853 97.0708 365.562C97.6361 365.327 98.2784 365.311 98.8567 365.516C99.435 365.721 99.9022 366.132 100.156 366.657C100.409 367.182 100.428 367.78 100.208 368.318C99.9885 368.856 99.5482 369.291 98.9839 369.528C59.1842 386.136 38.7155 403.397 36.4077 422.298C33.0117 450.108 58.3361 479.433 107.716 504.873C157.713 530.631 226.162 549.137 300.452 556.984C374.742 564.832 445.908 561.071 500.843 546.398C555.099 531.904 586.849 508.608 590.244 480.798C592.541 461.984 581.399 442.036 558.023 423.109C557.555 422.73 557.269 422.195 557.226 421.619C557.183 421.044 557.388 420.477 557.795 420.042C558.202 419.608 558.778 419.341 559.396 419.301C560.014 419.261 560.624 419.452 561.092 419.83C585.68 439.739 597.366 460.991 594.887 481.288C591.264 510.958 558.324 535.565 502.133 550.574C465.548 560.347 421.881 565.333 374.922 565.333Z" fill="white"/>
</g>
</svg>
