<svg width="350" height="323" viewBox="0 0 350 323" fill="none" xmlns="http://www.w3.org/2000/svg">
<g id="planetB" filter="url(#filter0_d)">
<path id="Vector" d="M175.495 314.216C269.662 314.216 346 243.877 346 157.108C346 70.3397 269.662 0 175.495 0C81.3273 0 4.98944 70.3397 4.98944 157.108C4.98944 243.877 81.3273 314.216 175.495 314.216Z" fill="#56CCF2"/>
<path id="Vector_2" opacity="0.2" d="M167.972 116.291C181.821 116.291 193.047 105.947 193.047 93.1867C193.047 80.4267 181.821 70.0826 167.972 70.0826C154.124 70.0826 142.898 80.4267 142.898 93.1867C142.898 105.947 154.124 116.291 167.972 116.291Z" fill="black"/>
<path id="Vector_3" opacity="0.2" d="M167.972 288.032C191.976 288.032 211.435 270.102 211.435 247.985C211.435 225.867 191.976 207.937 167.972 207.937C143.969 207.937 124.51 225.867 124.51 247.985C124.51 270.102 143.969 288.032 167.972 288.032Z" fill="black"/>
<path id="Vector_4" opacity="0.2" d="M253.24 188.354C257.848 188.354 261.583 184.912 261.583 180.666C261.583 176.42 257.848 172.979 253.24 172.979C248.632 172.979 244.897 176.42 244.897 180.666C244.897 184.912 248.632 188.354 253.24 188.354Z" fill="black"/>
<path id="Vector_5" opacity="0.2" d="M41.7651 197.155C47.7659 197.155 52.6306 192.673 52.6306 187.144C52.6306 181.614 47.7659 177.132 41.7651 177.132C35.7642 177.132 30.8995 181.614 30.8995 187.144C30.8995 192.673 35.7642 197.155 41.7651 197.155Z" fill="black"/>
<path id="Vector_6" opacity="0.2" d="M300.941 131.707C304.131 131.707 306.717 129.325 306.717 126.385C306.717 123.446 304.131 121.063 300.941 121.063C297.751 121.063 295.165 123.446 295.165 126.385C295.165 129.325 297.751 131.707 300.941 131.707Z" fill="black"/>
<path id="Vector_7" opacity="0.2" d="M225.569 63.7702C228.759 63.7702 231.345 61.3874 231.345 58.448C231.345 55.5086 228.759 53.1258 225.569 53.1258C222.379 53.1258 219.793 55.5086 219.793 58.448C219.793 61.3874 222.379 63.7702 225.569 63.7702Z" fill="black"/>
<path id="Vector_8" opacity="0.2" d="M160.45 170.971C164.605 170.971 167.972 167.867 167.972 164.039C167.972 160.211 164.605 157.108 160.45 157.108C156.296 157.108 152.928 160.211 152.928 164.039C152.928 167.867 156.296 170.971 160.45 170.971Z" fill="black"/>
<path id="Vector_9" opacity="0.2" d="M70.1827 103.199C76.1835 103.199 81.0482 98.7161 81.0482 93.1867C81.0482 87.6574 76.1835 83.1749 70.1827 83.1749C64.1818 83.1749 59.3171 87.6574 59.3171 93.1867C59.3171 98.7161 64.1818 103.199 70.1827 103.199Z" fill="black"/>
</g>
<defs>
<filter id="filter0_d" x="0.989441" y="0" width="349.011" height="322.216" filterUnits="userSpaceOnUse" color-interpolation-filters="sRGB">
<feFlood flood-opacity="0" result="BackgroundImageFix"/>
<feColorMatrix in="SourceAlpha" type="matrix" values="0 0 0 0 0 0 0 0 0 0 0 0 0 0 0 0 0 0 127 0"/>
<feOffset dy="4"/>
<feGaussianBlur stdDeviation="2"/>
<feColorMatrix type="matrix" values="0 0 0 0 0 0 0 0 0 0 0 0 0 0 0 0 0 0 0.25 0"/>
<feBlend mode="normal" in2="BackgroundImageFix" result="effect1_dropShadow"/>
<feBlend mode="normal" in="SourceGraphic" in2="effect1_dropShadow" result="shape"/>
</filter>
</defs>
</svg>
